<svg width="96" height="96" xmlns="http://www.w3.org/2000/svg" xmlns:xlink="http://www.w3.org/1999/xlink" xml:space="preserve" overflow="hidden"><g transform="translate(-548 -473)"><path d="M615.5 536.2C615.233 536.209 614.978 536.311 614.78 536.49 610.94 539.359 607.289 542.472 603.85 545.81 602.47 547.19 601.22 548.45 600.07 549.71 598.812 547.335 598.153 544.688 598.15 542 597.977 533.338 604.858 526.175 613.52 526 621.59 526.21 634.39 522.54 634.39 522.54 634.39 536.62 632.91 549.16 621.15 555.97 618.849 557.36 616.209 558.09 613.52 558.08 609.827 558.089 606.262 556.724 603.52 554.25 600.61 557.5 598.65 560.25 598.65 561.52L595.41 561.52C595.41 559.58 597.03 556.83 599.53 553.79 599.81 553.45 600.41 552.79 600.41 552.79L616.65 537.39C616.683 536.767 616.205 536.235 615.582 536.201 615.555 536.2 615.527 536.2 615.5 536.2Z" fill="#FFFFFF"/><path d="M565.17 544.43C565.924 545.884 567.368 546.853 569 547L587 547 587 555 569 555C564.44 554.917 560.269 552.414 558.05 548.43 555.924 544.584 556.109 539.877 558.53 536.21L568.93 518.21 562.07 514.21 578.81 509.73 583.29 526.47 576 522.28 565.56 540.38C564.669 541.545 564.518 543.116 565.17 544.43Z" fill="#FFFFFF"/><path d="M579.32 503.14 587.69 487.51C589.886 483.56 594.061 481.122 598.58 481.15 602.974 481.24 606.956 483.759 608.92 487.69L619.32 505.69 626.18 501.69 621.7 518.48 605 514 612.28 509.79 601.79 491.68C601.22 490.328 599.935 489.414 598.47 489.32 596.928 489.396 595.532 490.257 594.77 491.6L586.39 507.23Z" fill="#FFFFFF"/></g></svg>