<svg width="96" height="96" xmlns="http://www.w3.org/2000/svg" xmlns:xlink="http://www.w3.org/1999/xlink" xml:space="preserve" overflow="hidden"><g transform="translate(-659 -585)"><path d="M691 627C691 618.2 698.2 611 707 611 715.8 611 723 618.2 723 627 723 635.8 715.8 643 707 643 698.2 643 691 635.8 691 627ZM707 603C708.1 603 709 603.9 709 605 709 606.1 708.1 607 707 607 705.9 607 705 606.1 705 605 705 603.9 705.9 603 707 603ZM727.5 660.6 715 659 715 653.8C726.6 650.4 735 639.7 735 627 735 611.5 722.5 599 707 599 691.5 599 679 611.5 679 627 679 639.7 687.4 650.4 699 653.8L699 659 686.5 660.6C684.5 660.9 683 662.6 683 664.6L683 667 731 667 731 664.5C731 662.5 729.5 660.8 727.5 660.6Z" fill="#55C595"/><path d="M707 633C703.7 633 701 630.3 701 627 701 623.7 703.7 621 707 621 710.3 621 713 623.7 713 627 713 630.3 710.3 633 707 633ZM707 615C700.4 615 695 620.4 695 627 695 633.6 700.4 639 707 639 713.6 639 719 633.6 719 627 719 620.4 713.6 615 707 615Z" fill="#55C595"/></g></svg>